<?xml version="1.0" encoding="UTF-8"?>
<svg id="Capa_1" data-name="Capa 1" xmlns="http://www.w3.org/2000/svg" version="1.1" viewBox="0 0 3840 2160">
  <defs>
    <style>
      .cls-1 {
        fill: #bdc5c2;
      }

      .cls-1, .cls-2, .cls-3, .cls-4 {
        stroke-width: 0px;
      }

      .cls-2 {
        fill: #dedee3;
      }

      .cls-3 {
        fill: #00755a;
      }

      .cls-4 {
        fill: #ced1d2;
      }
    </style>
  </defs>
  <g>
    <rect class="cls-2" y="0" width="3840" height="2160"/>
    <path class="cls-4" d="M3840,1983.5l-12.1,1.4c-12.1,1.4-36.2,4.3-60.4,4.7-24.2.4-48.3-1.5-72.5-1.8-24.2-.2-48.3,1.3-72.5,20.5-24.2,19.1-48.3,55.9-72.5,59-24.2,3.1-48.3-27.4-72.5-18.1s-48.3,58.6-72.5,61.4c-24.2,2.8-48.3-40.9-72.5-51.8-24.2-10.9-48.3,11-72.5,31.3-24.2,20.3-48.3,39-72.5,29.3-24.2-9.6-48.3-47.6-72.5-54.4s-48.3,17.4-72.5,29.5-48.3,12.2-72.5-5.4c-24.2-17.6-48.3-52.8-72.5-71.7-24.2-18.9-48.3-21.5-72.5,0-24.2,21.5-48.3,67.2-72.5,86-24.2,18.8-48.3,10.8-72.5-6.8-24.2-17.6-48.3-44.8-72.5-64s-48.3-30.5-72.5-23.1-48.3,33.5-72.5,60.1c-24.2,26.6-48.3,53.6-72.5,68.5-24.2,14.9-48.3,17.6-72.5,1.1-24.2-16.5-48.3-52.1-72.5-63.4s-48.3,2-72.5,15.8c-24.2,13.8-48.3,28.1-72.5,32-24.2,3.9-48.3-2.6-72.5-7.2s-48.3-7.3-72.5-23.2c-24.2-15.9-48.3-45-72.5-64.8-24.2-19.8-48.3-30.4-72.5-36.7-24.2-6.3-48.3-8.4-72.5,3.7-24.2,12.2-48.3,38.6-72.5,59.7-24.2,21-48.3,36.7-72.5,50.3-24.2,13.6-48.3,25.3-72.5,8.1-24.2-17.2-48.3-63.3-72.5-89.8-24.2-26.5-48.3-33.4-72.5-37.1-24.2-3.7-48.3-4.2-72.5,6.1-24.2,10.3-48.3,31.3-72.5,44.4-24.2,13.1-48.3,18.3-72.5,29-24.2,10.7-48.3,26.8-72.5,14.1-24.1-12.7-48.3-54.4-72.5-71.7-24.2-17.4-48.3-10.5-72.5-8.5-24.2,2-48.3-1-72.5,2.4-24.2,3.5-48.3,13.4-72.5,38-24.2,24.7-48.3,64.2-72.5,59.4-24.2-4.7-48.3-53.7-72.5-64.8-24.1-11.1-48.3,15.6-72.5,38.3-24.2,22.7-48.3,41.4-72.5,41.8-24.2.4-48.3-17.6-72.5-42.5-24.2-25-48.3-57-72.5-59-24.2-1.9-48.3,26.3-72.5,42.9-24.2,16.6-48.3,21.7-72.5,35-24.1,13.4-48.3,35.1-72.5,46.2-24.2,11.1-48.3,11.6-72.5,1.9-24.2-9.8-48.3-29.9-60.4-39.9l-12.1-10V0h3840v1983.5Z"/>
    <path class="cls-1" d="M3840,1856.8l-12.1,5.5c-12.1,5.5-36.2,16.6-60.4,41.3-24.2,24.8-48.3,63.2-72.5,58.5-24.2-4.7-48.3-52.7-72.5-60.1-24.2-7.5-48.3,25.5-72.5,33.2s-48.3-9.8-72.5-10.9c-24.2-1.1-48.3,14.3-72.5,12.5s-48.3-20.8-72.5-30c-24.2-9.2-48.3-8.7-72.5.1-24.2,8.8-48.3,26-72.5,31-24.2,5-48.3-2.3-72.5-5.9s-48.3-3.4-72.5-1.6-48.3,5.1-72.5,8.1c-24.2,3-48.3,5.5-72.5,17.6-24.2,12.1-48.3,33.8-72.5,46.7-24.2,12.9-48.3,17.2-72.5,11.1-24.2-6-48.3-22.2-72.5-32.5-24.2-10.2-48.3-14.4-72.5-15.3-24.2-.9-48.3,1.3-72.5-4-24.2-5.3-48.3-18.3-72.5-27.6-24.2-9.3-48.3-15.1-72.5-24-24.2-8.9-48.3-21.1-72.5-19-24.2,2.1-48.3,18.4-72.5,35.3-24.2,16.9-48.3,34.3-72.5,33.9-24.2-.4-48.3-18.8-72.5-15.8-24.2,2.9-48.3,27.1-72.5,20.5-24.2-6.6-48.3-43.8-72.5-51.1-24.2-7.3-48.3,15.3-72.5,10.3-24.2-5-48.3-37.7-72.5-51.5-24.2-13.8-48.3-8.6-72.5,5.8-24.2,14.4-48.3,38.1-72.5,39.6-24.2,1.5-48.3-19.3-72.5-17.6-24.2,1.7-48.3,25.9-72.5,35.9-24.2,10-48.3,5.7-72.5,15.1-24.2,9.4-48.3,32.6-72.5,28.8-24.2-3.8-48.3-34.4-72.5-30.7-24.2,3.7-48.3,41.8-72.5,47.6-24.2,5.8-48.3-20.6-72.5-45-24.2-24.4-48.3-46.8-72.5-33.9-24.1,12.9-48.3,61.1-72.5,63.8-24.2,2.7-48.3-40.2-72.5-47-24.2-6.8-48.3,22.5-72.5,30.2-24.2,7.6-48.3-6.4-72.5-10.6-24.2-4.2-48.3,1.5-72.5-9.3-24.2-10.8-48.3-38.1-72.5-29.2-24.1,8.9-48.3,54-72.5,56.8-24.2,2.8-48.3-36.8-72.5-49.7-24.2-12.9-48.3.8-72.5-4.2-24.2-4.9-48.3-28.5-72.5-28.8-24.2-.3-48.3,22.6-72.5,48.4-24.2,25.8-48.3,54.4-72.5,56.6-24.1,2.2-48.3-21.9-72.5-46.9-24.2-24.9-48.3-50.7-72.5-43.4-24.2,7.3-48.3,47.5-60.4,67.7l-12.1,20.1V0h3840v1856.9Z"/>
    <path class="cls-3" d="M3840,1849.1l-12.1-15.6c-12.1-15.6-36.2-46.9-60.4-67.5-24.2-20.7-48.3-30.7-72.5-23-24.2,7.7-48.3,33.2-72.5,35-24.2,1.9-48.3-19.8-72.5-19.2-24.2.6-48.3,23.5-72.5,25.2-24.2,1.7-48.3-17.8-72.5-22.5s-48.3,5.5-72.5,19.5c-24.2,14-48.3,31.8-72.5,42.1-24.2,10.3-48.3,13-72.5,21.5-24.2,8.4-48.3,22.6-72.5,5.4-24.2-17.2-48.3-65.7-72.5-92.8s-48.3-32.7-72.5-11.9-48.3,68-72.5,92c-24.2,24-48.3,24.8-72.5,26.8-24.2,2-48.3,5.3-72.5.6-24.2-4.6-48.3-17.2-72.5-24.7-24.2-7.6-48.3-10.2-72.5-7.8-24.2,2.4-48.3,9.9-72.5,14.2s-48.3,5.5-72.5-2.1-48.3-23.9-72.5-37.5c-24.2-13.6-48.3-24.4-72.5-39.8s-48.3-35.4-72.5-20.4-48.3,64.8-72.5,89.5c-24.2,24.7-48.3,24.4-72.5,23.5-24.2-.9-48.3-2.3-72.5-21.6-24.2-19.3-48.3-56.5-72.5-67.7s-48.3,3.8-72.5,10.8-48.3,6.1-72.5,13.5c-24.2,7.4-48.3,23.1-72.5,11.7-24.2-11.4-48.3-49.9-72.5-40.6-24.2,9.4-48.3,66.6-72.5,84.2-24.2,17.6-48.3-4.5-72.5-6.4-24.2-1.9-48.3,16.4-72.5,7.6-24.2-8.7-48.3-44.4-72.5-56.4-24.2-11.9-48.3-.1-72.5,17.1-24.2,17.2-48.3,39.7-72.5,38.1-24.2-1.6-48.3-27.3-72.5-37.8-24.2-10.5-48.3-5.7-72.5-14.4-24.1-8.7-48.3-30.9-72.5-27.9-24.2,3-48.3,31.2-72.5,42.8-24.2,11.6-48.3,6.7-72.5-8-24.2-14.8-48.3-39.4-72.5-31.1-24.2,8.3-48.3,49.4-72.5,63.9-24.2,14.4-48.3,2.2-72.5-14.1-24.1-16.3-48.3-36.6-72.5-52.9-24.2-16.3-48.3-28.6-72.5-33.9-24.2-5.4-48.3-3.8-72.5,22.4-24.2,26.2-48.3,77-72.5,93.3-24.2,16.3-48.3-2-72.5-13.5-24.2-11.5-48.3-16.3-72.5-19.4-24.1-3.1-48.3-4.4-72.5-19.5-24.2-15.1-48.3-43.9-72.5-43.2-24.2.6-48.3,30.7-60.4,45.7l-12.1,15V0h3840v1849.1Z"/>
  </g>
  <path class="cls-3" d="M4134.5,4194.2l-12.1,5.5c-12.1,5.5-36.2,16.6-60.4,41.3-24.2,24.8-48.3,63.2-72.5,58.5-24.2-4.7-48.3-52.7-72.5-60.1-24.2-7.5-48.3,25.5-72.5,33.2s-48.3-9.8-72.5-10.9c-24.2-1.1-48.3,14.3-72.5,12.5s-48.3-20.8-72.5-30c-24.2-9.2-48.3-8.7-72.5.1-24.2,8.8-48.3,26-72.5,31-24.2,5-48.3-2.3-72.5-5.9s-48.3-3.4-72.5-1.6-48.3,5.1-72.5,8.1c-24.2,3-48.3,5.5-72.5,17.6-24.2,12.1-48.3,33.8-72.5,46.7-24.2,12.9-48.3,17.2-72.5,11.1-24.2-6-48.3-22.2-72.5-32.5-24.2-10.2-48.3-14.4-72.5-15.3-24.2-.9-48.3,1.3-72.5-4-24.2-5.3-48.3-18.3-72.5-27.6-24.2-9.3-48.3-15.1-72.5-24-24.2-8.9-48.3-21.1-72.5-19-24.2,2.1-48.3,18.4-72.5,35.3-24.2,16.9-48.3,34.3-72.5,33.9-24.2-.4-48.3-18.8-72.5-15.8-24.2,2.9-48.3,27.1-72.5,20.5-24.2-6.6-48.3-43.8-72.5-51.1-24.2-7.3-48.3,15.3-72.5,10.3-24.2-5-48.3-37.7-72.5-51.5-24.2-13.8-48.3-8.6-72.5,5.8-24.2,14.4-48.3,38.1-72.5,39.6-24.2,1.5-48.3-19.3-72.5-17.6-24.2,1.7-48.3,25.9-72.5,35.9-24.2,10-48.3,5.7-72.5,15.1-24.2,9.4-48.3,32.6-72.5,28.8-24.2-3.8-48.3-34.4-72.5-30.7-24.2,3.7-48.3,41.8-72.5,47.6-24.2,5.8-48.3-20.6-72.5-45-24.2-24.4-48.3-46.8-72.5-33.9-24.1,12.9-48.3,61.1-72.5,63.8-24.2,2.7-48.3-40.2-72.5-47-24.2-6.8-48.3,22.5-72.5,30.2-24.2,7.6-48.3-6.4-72.5-10.6-24.2-4.2-48.3,1.5-72.5-9.3-24.2-10.8-48.3-38.1-72.5-29.2-24.1,8.9-48.3,54-72.5,56.8-24.2,2.8-48.3-36.8-72.5-49.7-24.2-12.9-48.3.8-72.5-4.2-24.2-4.9-48.3-28.5-72.5-28.8-24.2-.3-48.3,22.6-72.5,48.4-24.2,25.8-48.3,54.4-72.5,56.6-24.1,2.2-48.3-21.9-72.5-46.9-24.2-24.9-48.3-50.7-72.5-43.4-24.2,7.3-48.3,47.5-60.4,67.7l-12.1,20.1v-1943.2h3840v1806.9Z"/>
</svg>