<svg xmlns="http://www.w3.org/2000/svg" viewBox="0 0 3840 2160"><g transform="
          rotate(180 1920 1080) 
          translate(-4.547473508864641e-13 -2.2737367544323206e-13)
          scale(1.0000000000000002)
        "><rect width="3840" height="2160" fill="rgb(222, 222, 227, 0)"></rect><g transform="translate(0, 0)"><path fill="rgb(206, 209, 210)" fill-opacity="1" d="M0,176.472L12.075,175.038C24.151,173.603,48.302,170.735,72.453,170.291C96.604,169.846,120.755,171.825,144.906,172.047C169.057,172.27,193.208,170.736,217.358,151.592C241.509,132.447,265.66,95.692,289.811,92.587C313.962,89.483,338.113,120.03,362.264,110.668C386.415,101.306,410.566,52.034,434.717,49.24C458.868,46.446,483.019,90.129,507.17,101.009C531.321,111.89,555.472,89.968,579.623,69.678C603.774,49.387,627.925,30.728,652.075,40.359C676.226,49.991,700.377,87.914,724.528,94.752C748.679,101.59,772.83,77.343,796.981,65.207C821.132,53.071,845.283,53.045,869.434,70.637C893.585,88.229,917.736,123.439,941.887,142.349C966.038,161.259,990.189,163.869,1014.34,142.337C1038.491,120.806,1062.642,75.131,1086.792,56.312C1110.943,37.492,1135.094,45.526,1159.245,63.136C1183.396,80.747,1207.547,107.933,1231.698,127.165C1255.849,146.397,1280,157.675,1304.151,150.257C1328.302,142.839,1352.453,116.726,1376.604,90.156C1400.755,63.587,1424.906,36.561,1449.057,21.682C1473.208,6.803,1497.358,4.071,1521.509,20.539C1545.66,37.008,1569.811,72.679,1593.962,83.891C1618.113,95.103,1642.264,81.857,1666.415,68.089C1690.566,54.321,1714.717,40.031,1738.868,36.128C1763.019,32.224,1787.17,38.706,1811.321,43.304C1835.472,47.902,1859.623,50.616,1883.774,66.528C1907.925,82.44,1932.075,111.551,1956.226,131.375C1980.377,151.199,2004.528,161.738,2028.679,168.059C2052.83,174.38,2076.981,176.484,2101.132,164.312C2125.283,152.14,2149.434,125.691,2173.585,104.647C2197.736,83.604,2221.887,67.967,2246.038,54.318C2270.189,40.67,2294.34,29.011,2318.491,46.237C2342.642,63.462,2366.792,109.573,2390.943,136.084C2415.094,162.595,2439.245,169.506,2463.396,173.207C2487.547,176.908,2511.698,177.399,2535.849,167.141C2560,156.883,2584.151,135.876,2608.302,122.758C2632.453,109.641,2656.604,104.412,2680.755,93.729C2704.906,83.046,2729.057,66.908,2753.208,79.655C2777.358,92.402,2801.509,134.033,2825.66,151.394C2849.811,168.755,2873.962,161.846,2898.113,159.882C2922.264,157.917,2946.415,160.898,2970.566,157.44C2994.717,153.982,3018.868,144.085,3043.019,119.395C3067.17,94.704,3091.321,55.221,3115.472,59.949C3139.623,64.677,3163.774,113.617,3187.925,124.736C3212.075,135.855,3236.226,109.153,3260.377,86.448C3284.528,63.743,3308.679,45.034,3332.83,44.649C3356.981,44.263,3381.132,62.201,3405.283,87.197C3429.434,112.193,3453.585,144.247,3477.736,146.17C3501.887,148.092,3526.038,119.883,3550.189,103.26C3574.34,86.637,3598.491,81.6,3622.642,68.215C3646.792,54.83,3670.943,33.097,3695.094,21.973C3719.245,10.848,3743.396,10.334,3767.547,20.119C3791.698,29.904,3815.849,49.99,3827.925,60.033L3840,70.076L3840,2160L3827.925,2160C3815.849,2160,3791.698,2160,3767.547,2160C3743.396,2160,3719.245,2160,3695.094,2160C3670.943,2160,3646.792,2160,3622.642,2160C3598.491,2160,3574.34,2160,3550.189,2160C3526.038,2160,3501.887,2160,3477.736,2160C3453.585,2160,3429.434,2160,3405.283,2160C3381.132,2160,3356.981,2160,3332.83,2160C3308.679,2160,3284.528,2160,3260.377,2160C3236.226,2160,3212.075,2160,3187.925,2160C3163.774,2160,3139.623,2160,3115.472,2160C3091.321,2160,3067.17,2160,3043.019,2160C3018.868,2160,2994.717,2160,2970.566,2160C2946.415,2160,2922.264,2160,2898.113,2160C2873.962,2160,2849.811,2160,2825.66,2160C2801.509,2160,2777.358,2160,2753.208,2160C2729.057,2160,2704.906,2160,2680.755,2160C2656.604,2160,2632.453,2160,2608.302,2160C2584.151,2160,2560,2160,2535.849,2160C2511.698,2160,2487.547,2160,2463.396,2160C2439.245,2160,2415.094,2160,2390.943,2160C2366.792,2160,2342.642,2160,2318.491,2160C2294.34,2160,2270.189,2160,2246.038,2160C2221.887,2160,2197.736,2160,2173.585,2160C2149.434,2160,2125.283,2160,2101.132,2160C2076.981,2160,2052.83,2160,2028.679,2160C2004.528,2160,1980.377,2160,1956.226,2160C1932.075,2160,1907.925,2160,1883.774,2160C1859.623,2160,1835.472,2160,1811.321,2160C1787.17,2160,1763.019,2160,1738.868,2160C1714.717,2160,1690.566,2160,1666.415,2160C1642.264,2160,1618.113,2160,1593.962,2160C1569.811,2160,1545.66,2160,1521.509,2160C1497.358,2160,1473.208,2160,1449.057,2160C1424.906,2160,1400.755,2160,1376.604,2160C1352.453,2160,1328.302,2160,1304.151,2160C1280,2160,1255.849,2160,1231.698,2160C1207.547,2160,1183.396,2160,1159.245,2160C1135.094,2160,1110.943,2160,1086.792,2160C1062.642,2160,1038.491,2160,1014.34,2160C990.189,2160,966.038,2160,941.887,2160C917.736,2160,893.585,2160,869.434,2160C845.283,2160,821.132,2160,796.981,2160C772.83,2160,748.679,2160,724.528,2160C700.377,2160,676.226,2160,652.075,2160C627.925,2160,603.774,2160,579.623,2160C555.472,2160,531.321,2160,507.17,2160C483.019,2160,458.868,2160,434.717,2160C410.566,2160,386.415,2160,362.264,2160C338.113,2160,313.962,2160,289.811,2160C265.66,2160,241.509,2160,217.358,2160C193.208,2160,169.057,2160,144.906,2160C120.755,2160,96.604,2160,72.453,2160C48.302,2160,24.151,2160,12.075,2160L0,2160Z"></path></g><g transform="translate(0, 180)"><path fill="rgb(189, 197, 194)" fill-opacity="1" d="M0,173.15L12.075,167.621C24.151,162.092,48.302,151.034,72.453,126.275C96.604,101.516,120.755,63.055,144.906,67.787C169.057,72.519,193.208,120.445,217.358,127.931C241.509,135.417,265.66,102.464,289.811,94.741C313.962,87.018,338.113,104.525,362.264,105.604C386.415,106.682,410.566,91.333,434.717,93.136C458.868,94.939,483.019,113.894,507.17,123.115C531.321,132.336,555.472,131.821,579.623,122.977C603.774,114.133,627.925,96.96,652.075,92.004C676.226,87.049,700.377,94.311,724.528,97.861C748.679,101.411,772.83,101.248,796.981,99.482C821.132,97.716,845.283,94.346,869.434,91.388C893.585,88.431,917.736,85.887,941.887,73.779C966.038,61.672,990.189,40.003,1014.34,27.062C1038.491,14.122,1062.642,9.912,1086.792,15.924C1110.943,21.937,1135.094,38.171,1159.245,48.377C1183.396,58.583,1207.547,62.761,1231.698,63.707C1255.849,64.654,1280,62.37,1304.151,67.706C1328.302,73.041,1352.453,85.997,1376.604,95.332C1400.755,104.668,1424.906,110.383,1449.057,119.33C1473.208,128.278,1497.358,140.458,1521.509,138.378C1545.66,136.298,1569.811,119.958,1593.962,103.063C1618.113,86.167,1642.264,68.715,1666.415,69.15C1690.566,69.585,1714.717,87.907,1738.868,84.997C1763.019,82.086,1787.17,57.943,1811.321,64.496C1835.472,71.048,1859.623,108.296,1883.774,115.607C1907.925,122.919,1932.075,100.294,1956.226,105.334C1980.377,110.375,2004.528,143.081,2028.679,156.865C2052.83,170.649,2076.981,165.512,2101.132,151.09C2125.283,136.668,2149.434,112.961,2173.585,111.507C2197.736,110.053,2221.887,130.85,2246.038,129.142C2270.189,127.433,2294.34,103.219,2318.491,93.262C2342.642,83.305,2366.792,87.605,2390.943,78.186C2415.094,68.767,2439.245,45.629,2463.396,49.394C2487.547,53.158,2511.698,83.826,2535.849,80.117C2560,76.409,2584.151,38.324,2608.302,32.484C2632.453,26.643,2656.604,53.047,2680.755,77.462C2704.906,101.877,2729.057,124.304,2753.208,111.406C2777.358,98.508,2801.509,50.284,2825.66,47.606C2849.811,44.929,2873.962,87.797,2898.113,94.572C2922.264,101.347,2946.415,72.029,2970.566,64.392C2994.717,56.755,3018.868,70.799,3043.019,74.971C3067.17,79.144,3091.321,73.445,3115.472,84.245C3139.623,95.046,3163.774,122.346,3187.925,113.445C3212.075,104.543,3236.226,59.44,3260.377,56.66C3284.528,53.879,3308.679,93.42,3332.83,106.342C3356.981,119.264,3381.132,105.567,3405.283,110.502C3429.434,115.437,3453.585,139.004,3477.736,139.331C3501.887,139.658,3526.038,116.744,3550.189,90.97C3574.34,65.195,3598.491,36.56,3622.642,34.325C3646.792,32.09,3670.943,56.256,3695.094,81.196C3719.245,106.136,3743.396,131.851,3767.547,124.575C3791.698,117.299,3815.849,77.032,3827.925,56.898L3840,36.765L3840,1980L3827.925,1980C3815.849,1980,3791.698,1980,3767.547,1980C3743.396,1980,3719.245,1980,3695.094,1980C3670.943,1980,3646.792,1980,3622.642,1980C3598.491,1980,3574.34,1980,3550.189,1980C3526.038,1980,3501.887,1980,3477.736,1980C3453.585,1980,3429.434,1980,3405.283,1980C3381.132,1980,3356.981,1980,3332.83,1980C3308.679,1980,3284.528,1980,3260.377,1980C3236.226,1980,3212.075,1980,3187.925,1980C3163.774,1980,3139.623,1980,3115.472,1980C3091.321,1980,3067.17,1980,3043.019,1980C3018.868,1980,2994.717,1980,2970.566,1980C2946.415,1980,2922.264,1980,2898.113,1980C2873.962,1980,2849.811,1980,2825.66,1980C2801.509,1980,2777.358,1980,2753.208,1980C2729.057,1980,2704.906,1980,2680.755,1980C2656.604,1980,2632.453,1980,2608.302,1980C2584.151,1980,2560,1980,2535.849,1980C2511.698,1980,2487.547,1980,2463.396,1980C2439.245,1980,2415.094,1980,2390.943,1980C2366.792,1980,2342.642,1980,2318.491,1980C2294.34,1980,2270.189,1980,2246.038,1980C2221.887,1980,2197.736,1980,2173.585,1980C2149.434,1980,2125.283,1980,2101.132,1980C2076.981,1980,2052.83,1980,2028.679,1980C2004.528,1980,1980.377,1980,1956.226,1980C1932.075,1980,1907.925,1980,1883.774,1980C1859.623,1980,1835.472,1980,1811.321,1980C1787.17,1980,1763.019,1980,1738.868,1980C1714.717,1980,1690.566,1980,1666.415,1980C1642.264,1980,1618.113,1980,1593.962,1980C1569.811,1980,1545.66,1980,1521.509,1980C1497.358,1980,1473.208,1980,1449.057,1980C1424.906,1980,1400.755,1980,1376.604,1980C1352.453,1980,1328.302,1980,1304.151,1980C1280,1980,1255.849,1980,1231.698,1980C1207.547,1980,1183.396,1980,1159.245,1980C1135.094,1980,1110.943,1980,1086.792,1980C1062.642,1980,1038.491,1980,1014.34,1980C990.189,1980,966.038,1980,941.887,1980C917.736,1980,893.585,1980,869.434,1980C845.283,1980,821.132,1980,796.981,1980C772.83,1980,748.679,1980,724.528,1980C700.377,1980,676.226,1980,652.075,1980C627.925,1980,603.774,1980,579.623,1980C555.472,1980,531.321,1980,507.17,1980C483.019,1980,458.868,1980,434.717,1980C410.566,1980,386.415,1980,362.264,1980C338.113,1980,313.962,1980,289.811,1980C265.66,1980,241.509,1980,217.358,1980C193.208,1980,169.057,1980,144.906,1980C120.755,1980,96.604,1980,72.453,1980C48.302,1980,24.151,1980,12.075,1980L0,1980Z"></path></g><g transform="translate(0, 360)"><path fill="rgb(173, 184, 177)" fill-opacity="1" d="M0,40.868L12.075,56.487C24.151,72.106,48.302,103.344,72.453,123.996C96.604,144.648,120.755,154.713,144.906,147.016C169.057,139.318,193.208,113.858,217.358,111.967C241.509,110.076,265.66,131.754,289.811,131.133C313.962,130.513,338.113,107.594,362.264,105.887C386.415,104.181,410.566,123.687,434.717,128.36C458.868,133.033,483.019,122.872,507.17,108.872C531.321,94.871,555.472,77.03,579.623,66.741C603.774,56.452,627.925,53.715,652.075,45.273C676.226,36.83,700.377,22.683,724.528,39.873C748.679,57.063,772.83,105.591,796.981,132.668C821.132,159.745,845.283,165.371,869.434,144.582C893.585,123.793,917.736,76.591,941.887,52.6C966.038,28.61,990.189,27.833,1014.34,25.823C1038.491,23.813,1062.642,20.571,1086.792,25.215C1110.943,29.859,1135.094,42.391,1159.245,49.964C1183.396,57.537,1207.547,60.153,1231.698,57.734C1255.849,55.315,1280,47.861,1304.151,43.548C1328.302,39.235,1352.453,38.064,1376.604,45.653C1400.755,53.242,1424.906,69.591,1449.057,83.183C1473.208,96.774,1497.358,107.608,1521.509,123.008C1545.66,138.408,1569.811,158.375,1593.962,143.442C1618.113,128.509,1642.264,78.675,1666.415,53.931C1690.566,29.187,1714.717,29.532,1738.868,30.421C1763.019,31.311,1787.17,32.745,1811.321,52.063C1835.472,71.38,1859.623,108.582,1883.774,119.72C1907.925,130.858,1932.075,115.932,1956.226,108.931C1980.377,101.93,2004.528,102.854,2028.679,95.449C2052.83,88.044,2076.981,72.311,2101.132,83.708C2125.283,95.106,2149.434,133.634,2173.585,124.275C2197.736,114.915,2221.887,57.668,2246.038,40.084C2270.189,22.5,2294.34,44.58,2318.491,46.483C2342.642,48.386,2366.792,30.113,2390.943,38.837C2415.094,47.56,2439.245,83.279,2463.396,95.227C2487.547,107.174,2511.698,95.35,2535.849,78.163C2560,60.975,2584.151,38.424,2608.302,40.015C2632.453,41.605,2656.604,67.337,2680.755,77.803C2704.906,88.269,2729.057,83.469,2753.208,92.172C2777.358,100.874,2801.509,123.078,2825.66,120.092C2849.811,117.106,2873.962,88.93,2898.113,77.295C2922.264,65.66,2946.415,70.566,2970.566,85.322C2994.717,100.078,3018.868,124.683,3043.019,116.414C3067.17,108.144,3091.321,67,3115.472,52.555C3139.623,38.111,3163.774,50.368,3187.925,66.653C3212.075,82.939,3236.226,103.253,3260.377,119.551C3284.528,135.85,3308.679,148.133,3332.83,153.491C3356.981,158.849,3381.132,157.281,3405.283,131.092C3429.434,104.904,3453.585,54.095,3477.736,37.829C3501.887,21.562,3526.038,39.838,3550.189,51.378C3574.34,62.918,3598.491,67.722,3622.642,70.792C3646.792,73.862,3670.943,75.196,3695.094,90.264C3719.245,105.331,3743.396,134.131,3767.547,133.497C3791.698,132.863,3815.849,102.795,3827.925,87.762L3840,72.728L3840,1800L3827.925,1800C3815.849,1800,3791.698,1800,3767.547,1800C3743.396,1800,3719.245,1800,3695.094,1800C3670.943,1800,3646.792,1800,3622.642,1800C3598.491,1800,3574.34,1800,3550.189,1800C3526.038,1800,3501.887,1800,3477.736,1800C3453.585,1800,3429.434,1800,3405.283,1800C3381.132,1800,3356.981,1800,3332.83,1800C3308.679,1800,3284.528,1800,3260.377,1800C3236.226,1800,3212.075,1800,3187.925,1800C3163.774,1800,3139.623,1800,3115.472,1800C3091.321,1800,3067.17,1800,3043.019,1800C3018.868,1800,2994.717,1800,2970.566,1800C2946.415,1800,2922.264,1800,2898.113,1800C2873.962,1800,2849.811,1800,2825.66,1800C2801.509,1800,2777.358,1800,2753.208,1800C2729.057,1800,2704.906,1800,2680.755,1800C2656.604,1800,2632.453,1800,2608.302,1800C2584.151,1800,2560,1800,2535.849,1800C2511.698,1800,2487.547,1800,2463.396,1800C2439.245,1800,2415.094,1800,2390.943,1800C2366.792,1800,2342.642,1800,2318.491,1800C2294.34,1800,2270.189,1800,2246.038,1800C2221.887,1800,2197.736,1800,2173.585,1800C2149.434,1800,2125.283,1800,2101.132,1800C2076.981,1800,2052.83,1800,2028.679,1800C2004.528,1800,1980.377,1800,1956.226,1800C1932.075,1800,1907.925,1800,1883.774,1800C1859.623,1800,1835.472,1800,1811.321,1800C1787.17,1800,1763.019,1800,1738.868,1800C1714.717,1800,1690.566,1800,1666.415,1800C1642.264,1800,1618.113,1800,1593.962,1800C1569.811,1800,1545.66,1800,1521.509,1800C1497.358,1800,1473.208,1800,1449.057,1800C1424.906,1800,1400.755,1800,1376.604,1800C1352.453,1800,1328.302,1800,1304.151,1800C1280,1800,1255.849,1800,1231.698,1800C1207.547,1800,1183.396,1800,1159.245,1800C1135.094,1800,1110.943,1800,1086.792,1800C1062.642,1800,1038.491,1800,1014.34,1800C990.189,1800,966.038,1800,941.887,1800C917.736,1800,893.585,1800,869.434,1800C845.283,1800,821.132,1800,796.981,1800C772.83,1800,748.679,1800,724.528,1800C700.377,1800,676.226,1800,652.075,1800C627.925,1800,603.774,1800,579.623,1800C555.472,1800,531.321,1800,507.17,1800C483.019,1800,458.868,1800,434.717,1800C410.566,1800,386.415,1800,362.264,1800C338.113,1800,313.962,1800,289.811,1800C265.66,1800,241.509,1800,217.358,1800C193.208,1800,169.057,1800,144.906,1800C120.755,1800,96.604,1800,72.453,1800C48.302,1800,24.151,1800,12.075,1800L0,1800Z"></path></g><g transform="translate(0, 540)"><path fill="rgb(156, 172, 160)" fill-opacity="1" d="M0,127.931L12.075,120.415C24.151,112.899,48.302,97.866,72.453,82.098C96.604,66.331,120.755,49.829,144.906,59.781C169.057,69.733,193.208,106.138,217.358,123.638C241.509,141.138,265.66,139.731,289.811,125.628C313.962,111.524,338.113,84.723,362.264,76.61C386.415,68.498,410.566,79.075,434.717,76.334C458.868,73.593,483.019,57.533,507.17,69.287C531.321,81.041,555.472,120.608,579.623,139.313C603.774,158.017,627.925,155.86,652.075,143.095C676.226,130.33,700.377,106.958,724.528,107.301C748.679,107.645,772.83,131.704,796.981,136.76C821.132,141.816,845.283,127.868,869.434,111.803C893.585,95.738,917.736,77.555,941.887,87.246C966.038,96.936,990.189,134.501,1014.34,137.134C1038.491,139.768,1062.642,107.471,1086.792,96.142C1110.943,84.812,1135.094,94.449,1159.245,91.006C1183.396,87.563,1207.547,71.04,1231.698,82.907C1255.849,94.774,1280,135.032,1304.151,149.255C1328.302,163.477,1352.453,151.666,1376.604,132.999C1400.755,114.333,1424.906,88.812,1449.057,78.469C1473.208,68.126,1497.358,72.962,1521.509,77.034C1545.66,81.107,1569.811,84.417,1593.962,89.62C1618.113,94.823,1642.264,101.919,1666.415,102.355C1690.566,102.792,1714.717,96.569,1738.868,90.604C1763.019,84.638,1787.17,78.93,1811.321,86.803C1835.472,94.676,1859.623,116.131,1883.774,121.749C1907.925,127.368,1932.075,117.151,1956.226,99.306C1980.377,81.462,2004.528,55.989,2028.679,48.501C2052.83,41.014,2076.981,51.511,2101.132,58.221C2125.283,64.931,2149.434,67.853,2173.585,72.752C2197.736,77.652,2221.887,84.528,2246.038,82.123C2270.189,79.718,2294.34,68.031,2318.491,62.466C2342.642,56.902,2366.792,57.46,2390.943,59.324C2415.094,61.188,2439.245,64.359,2463.396,64.409C2487.547,64.459,2511.698,61.388,2535.849,69.436C2560,77.484,2584.151,96.651,2608.302,92.387C2632.453,88.123,2656.604,60.429,2680.755,50.514C2704.906,40.599,2729.057,48.463,2753.208,61.492C2777.358,74.52,2801.509,92.713,2825.66,91.771C2849.811,90.829,2873.962,70.752,2898.113,61.376C2922.264,52,2946.415,53.323,2970.566,70.488C2994.717,87.653,3018.868,120.659,3043.019,121.9C3067.17,123.14,3091.321,92.617,3115.472,69.131C3139.623,45.646,3163.774,29.2,3187.925,32.514C3212.075,35.829,3236.226,58.904,3260.377,78.121C3284.528,97.338,3308.679,112.698,3332.83,128.412C3356.981,144.126,3381.132,160.193,3405.283,142.422C3429.434,124.652,3453.585,73.042,3477.736,72.303C3501.887,71.563,3526.038,121.694,3550.189,133.733C3574.34,145.773,3598.491,119.721,3622.642,95.787C3646.792,71.854,3670.943,50.038,3695.094,36.582C3719.245,23.126,3743.396,18.031,3767.547,24.071C3791.698,30.112,3815.849,47.288,3827.925,55.876L3840,64.464L3840,1620L3827.925,1620C3815.849,1620,3791.698,1620,3767.547,1620C3743.396,1620,3719.245,1620,3695.094,1620C3670.943,1620,3646.792,1620,3622.642,1620C3598.491,1620,3574.34,1620,3550.189,1620C3526.038,1620,3501.887,1620,3477.736,1620C3453.585,1620,3429.434,1620,3405.283,1620C3381.132,1620,3356.981,1620,3332.83,1620C3308.679,1620,3284.528,1620,3260.377,1620C3236.226,1620,3212.075,1620,3187.925,1620C3163.774,1620,3139.623,1620,3115.472,1620C3091.321,1620,3067.17,1620,3043.019,1620C3018.868,1620,2994.717,1620,2970.566,1620C2946.415,1620,2922.264,1620,2898.113,1620C2873.962,1620,2849.811,1620,2825.66,1620C2801.509,1620,2777.358,1620,2753.208,1620C2729.057,1620,2704.906,1620,2680.755,1620C2656.604,1620,2632.453,1620,2608.302,1620C2584.151,1620,2560,1620,2535.849,1620C2511.698,1620,2487.547,1620,2463.396,1620C2439.245,1620,2415.094,1620,2390.943,1620C2366.792,1620,2342.642,1620,2318.491,1620C2294.34,1620,2270.189,1620,2246.038,1620C2221.887,1620,2197.736,1620,2173.585,1620C2149.434,1620,2125.283,1620,2101.132,1620C2076.981,1620,2052.83,1620,2028.679,1620C2004.528,1620,1980.377,1620,1956.226,1620C1932.075,1620,1907.925,1620,1883.774,1620C1859.623,1620,1835.472,1620,1811.321,1620C1787.17,1620,1763.019,1620,1738.868,1620C1714.717,1620,1690.566,1620,1666.415,1620C1642.264,1620,1618.113,1620,1593.962,1620C1569.811,1620,1545.66,1620,1521.509,1620C1497.358,1620,1473.208,1620,1449.057,1620C1424.906,1620,1400.755,1620,1376.604,1620C1352.453,1620,1328.302,1620,1304.151,1620C1280,1620,1255.849,1620,1231.698,1620C1207.547,1620,1183.396,1620,1159.245,1620C1135.094,1620,1110.943,1620,1086.792,1620C1062.642,1620,1038.491,1620,1014.34,1620C990.189,1620,966.038,1620,941.887,1620C917.736,1620,893.585,1620,869.434,1620C845.283,1620,821.132,1620,796.981,1620C772.83,1620,748.679,1620,724.528,1620C700.377,1620,676.226,1620,652.075,1620C627.925,1620,603.774,1620,579.623,1620C555.472,1620,531.321,1620,507.17,1620C483.019,1620,458.868,1620,434.717,1620C410.566,1620,386.415,1620,362.264,1620C338.113,1620,313.962,1620,289.811,1620C265.66,1620,241.509,1620,217.358,1620C193.208,1620,169.057,1620,144.906,1620C120.755,1620,96.604,1620,72.453,1620C48.302,1620,24.151,1620,12.075,1620L0,1620Z"></path></g><g transform="translate(0, 720)"><path fill="rgb(140, 159, 144)" fill-opacity="1" d="M0,168.369L12.075,140.309C24.151,112.25,48.302,56.131,72.453,33.438C96.604,10.746,120.755,21.479,144.906,45.904C169.057,70.328,193.208,108.444,217.358,129.945C241.509,151.445,265.66,156.331,289.811,146.006C313.962,135.681,338.113,110.146,362.264,93.803C386.415,77.461,410.566,70.311,434.717,56.565C458.868,42.819,483.019,22.477,507.17,28.258C531.321,34.038,555.472,65.942,579.623,66.016C603.774,66.089,627.925,34.333,652.075,47.468C676.226,60.602,700.377,118.627,724.528,119.516C748.679,120.406,772.83,64.161,796.981,47.741C821.132,31.321,845.283,54.725,869.434,65.507C893.585,76.288,917.736,74.446,941.887,71.889C966.038,69.333,990.189,66.062,1014.34,63.352C1038.491,60.642,1062.642,58.492,1086.792,72.07C1110.943,85.649,1135.094,114.955,1159.245,108.265C1183.396,101.575,1207.547,58.887,1231.698,53.084C1255.849,47.28,1280,78.36,1304.151,98.423C1328.302,118.487,1352.453,127.534,1376.604,116.929C1400.755,106.324,1424.906,76.068,1449.057,59.954C1473.208,43.839,1497.358,41.866,1521.509,42.564C1545.66,43.263,1569.811,46.633,1593.962,44.522C1618.113,42.411,1642.264,34.819,1666.415,35.399C1690.566,35.979,1714.717,44.732,1738.868,66.698C1763.019,88.665,1787.17,123.846,1811.321,138.439C1835.472,153.032,1859.623,147.037,1883.774,128.797C1907.925,110.557,1932.075,80.072,1956.226,74.826C1980.377,69.579,2004.528,89.57,2028.679,93.785C2052.83,98,2076.981,86.437,2101.132,86.219C2125.283,86,2149.434,97.125,2173.585,107.756C2197.736,118.387,2221.887,128.523,2246.038,138.837C2270.189,149.151,2294.34,159.643,2318.491,153.133C2342.642,146.622,2366.792,123.109,2390.943,95.875C2415.094,68.641,2439.245,37.686,2463.396,41.898C2487.547,46.111,2511.698,85.49,2535.849,113.421C2560,141.353,2584.151,157.838,2608.302,145.593C2632.453,133.349,2656.604,92.377,2680.755,85.119C2704.906,77.861,2729.057,104.318,2753.208,113.413C2777.358,122.507,2801.509,114.239,2825.66,117.296C2849.811,120.353,2873.962,134.737,2898.113,137.456C2922.264,140.175,2946.415,131.231,2970.566,135.396C2994.717,139.56,3018.868,156.833,3043.019,157.346C3067.17,157.859,3091.321,141.612,3115.472,116.918C3139.623,92.224,3163.774,59.082,3187.925,62.885C3212.075,66.688,3236.226,107.436,3260.377,123.545C3284.528,139.655,3308.679,131.127,3332.83,135.038C3356.981,138.948,3381.132,155.298,3405.283,145.867C3429.434,136.436,3453.585,101.224,3477.736,79.766C3501.887,58.308,3526.038,50.602,3550.189,45.383C3574.34,40.163,3598.491,37.429,3622.642,35.381C3646.792,33.334,3670.943,31.973,3695.094,38.402C3719.245,44.832,3743.396,59.052,3767.547,55.402C3791.698,51.752,3815.849,30.231,3827.925,19.471L3840,8.71L3840,1440L3827.925,1440C3815.849,1440,3791.698,1440,3767.547,1440C3743.396,1440,3719.245,1440,3695.094,1440C3670.943,1440,3646.792,1440,3622.642,1440C3598.491,1440,3574.34,1440,3550.189,1440C3526.038,1440,3501.887,1440,3477.736,1440C3453.585,1440,3429.434,1440,3405.283,1440C3381.132,1440,3356.981,1440,3332.83,1440C3308.679,1440,3284.528,1440,3260.377,1440C3236.226,1440,3212.075,1440,3187.925,1440C3163.774,1440,3139.623,1440,3115.472,1440C3091.321,1440,3067.17,1440,3043.019,1440C3018.868,1440,2994.717,1440,2970.566,1440C2946.415,1440,2922.264,1440,2898.113,1440C2873.962,1440,2849.811,1440,2825.66,1440C2801.509,1440,2777.358,1440,2753.208,1440C2729.057,1440,2704.906,1440,2680.755,1440C2656.604,1440,2632.453,1440,2608.302,1440C2584.151,1440,2560,1440,2535.849,1440C2511.698,1440,2487.547,1440,2463.396,1440C2439.245,1440,2415.094,1440,2390.943,1440C2366.792,1440,2342.642,1440,2318.491,1440C2294.34,1440,2270.189,1440,2246.038,1440C2221.887,1440,2197.736,1440,2173.585,1440C2149.434,1440,2125.283,1440,2101.132,1440C2076.981,1440,2052.83,1440,2028.679,1440C2004.528,1440,1980.377,1440,1956.226,1440C1932.075,1440,1907.925,1440,1883.774,1440C1859.623,1440,1835.472,1440,1811.321,1440C1787.17,1440,1763.019,1440,1738.868,1440C1714.717,1440,1690.566,1440,1666.415,1440C1642.264,1440,1618.113,1440,1593.962,1440C1569.811,1440,1545.66,1440,1521.509,1440C1497.358,1440,1473.208,1440,1449.057,1440C1424.906,1440,1400.755,1440,1376.604,1440C1352.453,1440,1328.302,1440,1304.151,1440C1280,1440,1255.849,1440,1231.698,1440C1207.547,1440,1183.396,1440,1159.245,1440C1135.094,1440,1110.943,1440,1086.792,1440C1062.642,1440,1038.491,1440,1014.34,1440C990.189,1440,966.038,1440,941.887,1440C917.736,1440,893.585,1440,869.434,1440C845.283,1440,821.132,1440,796.981,1440C772.83,1440,748.679,1440,724.528,1440C700.377,1440,676.226,1440,652.075,1440C627.925,1440,603.774,1440,579.623,1440C555.472,1440,531.321,1440,507.17,1440C483.019,1440,458.868,1440,434.717,1440C410.566,1440,386.415,1440,362.264,1440C338.113,1440,313.962,1440,289.811,1440C265.66,1440,241.509,1440,217.358,1440C193.208,1440,169.057,1440,144.906,1440C120.755,1440,96.604,1440,72.453,1440C48.302,1440,24.151,1440,12.075,1440L0,1440Z"></path></g><g transform="translate(0, 900)"><path fill="rgb(123, 147, 127)" fill-opacity="1" d="M0,5.089L12.075,24.984C24.151,44.88,48.302,84.671,72.453,105.912C96.604,127.153,120.755,129.842,144.906,136.011C169.057,142.181,193.208,151.829,217.358,129.883C241.509,107.936,265.66,54.395,289.811,39.484C313.962,24.573,338.113,48.293,362.264,66.206C386.415,84.118,410.566,96.224,434.717,84.497C458.868,72.77,483.019,37.211,507.17,41.06C531.321,44.909,555.472,88.166,579.623,96.345C603.774,104.523,627.925,77.623,652.075,81.818C676.226,86.014,700.377,121.304,724.528,138.722C748.679,156.14,772.83,155.686,796.981,133.56C821.132,111.433,845.283,67.635,869.434,45.952C893.585,24.27,917.736,24.705,941.887,31.866C966.038,39.027,990.189,52.915,1014.34,61.935C1038.491,70.955,1062.642,75.108,1086.792,66.705C1110.943,58.302,1135.094,37.344,1159.245,50.164C1183.396,62.984,1207.547,109.583,1231.698,107.369C1255.849,105.155,1280,54.128,1304.151,57.289C1328.302,60.45,1352.453,117.798,1376.604,136.874C1400.755,155.95,1424.906,136.753,1449.057,111.234C1473.208,85.716,1497.358,53.877,1521.509,49.4C1545.66,44.924,1569.811,67.811,1593.962,78.679C1618.113,89.546,1642.264,88.394,1666.415,77.843C1690.566,67.292,1714.717,47.342,1738.868,56.648C1763.019,65.954,1787.17,104.514,1811.321,114.237C1835.472,123.959,1859.623,104.842,1883.774,104.047C1907.925,103.251,1932.075,120.777,1956.226,133.859C1980.377,146.941,2004.528,155.58,2028.679,153.178C2052.83,150.775,2076.981,137.331,2101.132,133.407C2125.283,129.483,2149.434,135.079,2173.585,126.467C2197.736,117.856,2221.887,95.037,2246.038,79.839C2270.189,64.641,2294.34,57.063,2318.491,70.98C2342.642,84.897,2366.792,120.309,2390.943,125.08C2415.094,129.851,2439.245,103.982,2463.396,90.064C2487.547,76.146,2511.698,74.18,2535.849,83.709C2560,93.237,2584.151,114.26,2608.302,110.236C2632.453,106.211,2656.604,77.138,2680.755,62.575C2704.906,48.011,2729.057,47.955,2753.208,48.503C2777.358,49.051,2801.509,50.202,2825.66,59.542C2849.811,68.881,2873.962,86.408,2898.113,94.34C2922.264,102.273,2946.415,100.61,2970.566,94.906C2994.717,89.203,3018.868,79.459,3043.019,65.626C3067.17,51.792,3091.321,33.87,3115.472,45.738C3139.623,57.606,3163.774,99.263,3187.925,98.574C3212.075,97.886,3236.226,54.852,3260.377,45.416C3284.528,35.98,3308.679,60.141,3332.83,81.424C3356.981,102.706,3381.132,121.111,3405.283,127.386C3429.434,133.661,3453.585,127.806,3477.736,128.361C3501.887,128.916,3526.038,135.881,3550.189,138.855C3574.34,141.829,3598.491,140.812,3622.642,118.612C3646.792,96.412,3670.943,53.029,3695.094,53.383C3719.245,53.736,3743.396,97.825,3767.547,100.717C3791.698,103.608,3815.849,65.303,3827.925,46.15L3840,26.997L3840,1260L3827.925,1260C3815.849,1260,3791.698,1260,3767.547,1260C3743.396,1260,3719.245,1260,3695.094,1260C3670.943,1260,3646.792,1260,3622.642,1260C3598.491,1260,3574.34,1260,3550.189,1260C3526.038,1260,3501.887,1260,3477.736,1260C3453.585,1260,3429.434,1260,3405.283,1260C3381.132,1260,3356.981,1260,3332.83,1260C3308.679,1260,3284.528,1260,3260.377,1260C3236.226,1260,3212.075,1260,3187.925,1260C3163.774,1260,3139.623,1260,3115.472,1260C3091.321,1260,3067.17,1260,3043.019,1260C3018.868,1260,2994.717,1260,2970.566,1260C2946.415,1260,2922.264,1260,2898.113,1260C2873.962,1260,2849.811,1260,2825.66,1260C2801.509,1260,2777.358,1260,2753.208,1260C2729.057,1260,2704.906,1260,2680.755,1260C2656.604,1260,2632.453,1260,2608.302,1260C2584.151,1260,2560,1260,2535.849,1260C2511.698,1260,2487.547,1260,2463.396,1260C2439.245,1260,2415.094,1260,2390.943,1260C2366.792,1260,2342.642,1260,2318.491,1260C2294.34,1260,2270.189,1260,2246.038,1260C2221.887,1260,2197.736,1260,2173.585,1260C2149.434,1260,2125.283,1260,2101.132,1260C2076.981,1260,2052.83,1260,2028.679,1260C2004.528,1260,1980.377,1260,1956.226,1260C1932.075,1260,1907.925,1260,1883.774,1260C1859.623,1260,1835.472,1260,1811.321,1260C1787.17,1260,1763.019,1260,1738.868,1260C1714.717,1260,1690.566,1260,1666.415,1260C1642.264,1260,1618.113,1260,1593.962,1260C1569.811,1260,1545.66,1260,1521.509,1260C1497.358,1260,1473.208,1260,1449.057,1260C1424.906,1260,1400.755,1260,1376.604,1260C1352.453,1260,1328.302,1260,1304.151,1260C1280,1260,1255.849,1260,1231.698,1260C1207.547,1260,1183.396,1260,1159.245,1260C1135.094,1260,1110.943,1260,1086.792,1260C1062.642,1260,1038.491,1260,1014.34,1260C990.189,1260,966.038,1260,941.887,1260C917.736,1260,893.585,1260,869.434,1260C845.283,1260,821.132,1260,796.981,1260C772.83,1260,748.679,1260,724.528,1260C700.377,1260,676.226,1260,652.075,1260C627.925,1260,603.774,1260,579.623,1260C555.472,1260,531.321,1260,507.17,1260C483.019,1260,458.868,1260,434.717,1260C410.566,1260,386.415,1260,362.264,1260C338.113,1260,313.962,1260,289.811,1260C265.66,1260,241.509,1260,217.358,1260C193.208,1260,169.057,1260,144.906,1260C120.755,1260,96.604,1260,72.453,1260C48.302,1260,24.151,1260,12.075,1260L0,1260Z"></path></g><g transform="translate(0, 1080)"><path fill="rgb(107, 134, 110)" fill-opacity="1" d="M0,92.928L12.075,102.54C24.151,112.153,48.302,131.378,72.453,120.979C96.604,110.58,120.755,70.557,144.906,65.011C169.057,59.465,193.208,88.397,217.358,106.092C241.509,123.788,265.66,130.246,289.811,124.136C313.962,118.026,338.113,99.347,362.264,87.219C386.415,75.09,410.566,69.513,434.717,60.821C458.868,52.129,483.019,40.321,507.17,57.88C531.321,75.439,555.472,122.363,579.623,134.108C603.774,145.853,627.925,122.419,652.075,96.679C676.226,70.939,700.377,42.894,724.528,45.012C748.679,47.13,772.83,79.41,796.981,99.031C821.132,118.652,845.283,125.613,869.434,131.628C893.585,137.643,917.736,142.71,941.887,142.835C966.038,142.959,990.189,138.141,1014.34,118.796C1038.491,99.45,1062.642,65.578,1086.792,64.636C1110.943,63.695,1135.094,95.684,1159.245,98.826C1183.396,101.967,1207.547,76.261,1231.698,64.721C1255.849,53.181,1280,55.809,1304.151,60.197C1328.302,64.585,1352.453,70.733,1376.604,87.574C1400.755,104.415,1424.906,131.948,1449.057,135.372C1473.208,138.795,1497.358,118.11,1521.509,94.347C1545.66,70.584,1569.811,43.745,1593.962,52.883C1618.113,62.021,1642.264,107.137,1666.415,108.376C1690.566,109.616,1714.717,66.978,1738.868,63.091C1763.019,59.203,1787.17,94.066,1811.321,119.257C1835.472,144.447,1859.623,159.966,1883.774,161.703C1907.925,163.44,1932.075,151.394,1956.226,125.006C1980.377,98.617,2004.528,57.884,2028.679,56.915C2052.83,55.947,2076.981,94.741,2101.132,104.469C2125.283,114.197,2149.434,94.858,2173.585,97.21C2197.736,99.562,2221.887,123.606,2246.038,128.847C2270.189,134.088,2294.34,120.526,2318.491,111.743C2342.642,102.96,2366.792,98.956,2390.943,100.208C2415.094,101.459,2439.245,107.967,2463.396,117.848C2487.547,127.728,2511.698,140.982,2535.849,131.84C2560,122.698,2584.151,91.159,2608.302,65.541C2632.453,39.923,2656.604,20.226,2680.755,26.232C2704.906,32.239,2729.057,63.95,2753.208,84.852C2777.358,105.753,2801.509,115.846,2825.66,112.814C2849.811,109.782,2873.962,93.626,2898.113,91.17C2922.264,88.714,2946.415,99.957,2970.566,101.533C2994.717,103.108,3018.868,95.017,3043.019,88.194C3067.17,81.371,3091.321,75.817,3115.472,88.452C3139.623,101.087,3163.774,131.91,3187.925,145.649C3212.075,159.388,3236.226,156.043,3260.377,142.411C3284.528,128.779,3308.679,104.861,3332.83,103.837C3356.981,102.814,3381.132,124.686,3405.283,111.777C3429.434,98.869,3453.585,51.18,3477.736,31.667C3501.887,12.153,3526.038,20.814,3550.189,39.985C3574.34,59.155,3598.491,88.834,3622.642,111.034C3646.792,133.233,3670.943,147.953,3695.094,152.814C3719.245,157.676,3743.396,152.679,3767.547,136.16C3791.698,119.642,3815.849,91.601,3827.925,77.581L3840,63.56L3840,1080L3827.925,1080C3815.849,1080,3791.698,1080,3767.547,1080C3743.396,1080,3719.245,1080,3695.094,1080C3670.943,1080,3646.792,1080,3622.642,1080C3598.491,1080,3574.34,1080,3550.189,1080C3526.038,1080,3501.887,1080,3477.736,1080C3453.585,1080,3429.434,1080,3405.283,1080C3381.132,1080,3356.981,1080,3332.83,1080C3308.679,1080,3284.528,1080,3260.377,1080C3236.226,1080,3212.075,1080,3187.925,1080C3163.774,1080,3139.623,1080,3115.472,1080C3091.321,1080,3067.17,1080,3043.019,1080C3018.868,1080,2994.717,1080,2970.566,1080C2946.415,1080,2922.264,1080,2898.113,1080C2873.962,1080,2849.811,1080,2825.66,1080C2801.509,1080,2777.358,1080,2753.208,1080C2729.057,1080,2704.906,1080,2680.755,1080C2656.604,1080,2632.453,1080,2608.302,1080C2584.151,1080,2560,1080,2535.849,1080C2511.698,1080,2487.547,1080,2463.396,1080C2439.245,1080,2415.094,1080,2390.943,1080C2366.792,1080,2342.642,1080,2318.491,1080C2294.34,1080,2270.189,1080,2246.038,1080C2221.887,1080,2197.736,1080,2173.585,1080C2149.434,1080,2125.283,1080,2101.132,1080C2076.981,1080,2052.83,1080,2028.679,1080C2004.528,1080,1980.377,1080,1956.226,1080C1932.075,1080,1907.925,1080,1883.774,1080C1859.623,1080,1835.472,1080,1811.321,1080C1787.17,1080,1763.019,1080,1738.868,1080C1714.717,1080,1690.566,1080,1666.415,1080C1642.264,1080,1618.113,1080,1593.962,1080C1569.811,1080,1545.66,1080,1521.509,1080C1497.358,1080,1473.208,1080,1449.057,1080C1424.906,1080,1400.755,1080,1376.604,1080C1352.453,1080,1328.302,1080,1304.151,1080C1280,1080,1255.849,1080,1231.698,1080C1207.547,1080,1183.396,1080,1159.245,1080C1135.094,1080,1110.943,1080,1086.792,1080C1062.642,1080,1038.491,1080,1014.34,1080C990.189,1080,966.038,1080,941.887,1080C917.736,1080,893.585,1080,869.434,1080C845.283,1080,821.132,1080,796.981,1080C772.83,1080,748.679,1080,724.528,1080C700.377,1080,676.226,1080,652.075,1080C627.925,1080,603.774,1080,579.623,1080C555.472,1080,531.321,1080,507.17,1080C483.019,1080,458.868,1080,434.717,1080C410.566,1080,386.415,1080,362.264,1080C338.113,1080,313.962,1080,289.811,1080C265.66,1080,241.509,1080,217.358,1080C193.208,1080,169.057,1080,144.906,1080C120.755,1080,96.604,1080,72.453,1080C48.302,1080,24.151,1080,12.075,1080L0,1080Z"></path></g><g transform="translate(0, 1260)"><path fill="rgb(90, 121, 94)" fill-opacity="1" d="M0,90.373L12.075,102.264C24.151,114.154,48.302,137.936,72.453,139.962C96.604,141.988,120.755,122.258,144.906,96.401C169.057,70.545,193.208,38.561,217.358,26.085C241.509,13.609,265.66,20.641,289.811,42.552C313.962,64.463,338.113,101.253,362.264,108.971C386.415,116.689,410.566,95.333,434.717,96.604C458.868,97.875,483.019,121.771,507.17,136.312C531.321,150.854,555.472,156.041,579.623,141.781C603.774,127.521,627.925,93.816,652.075,93.054C676.226,92.292,700.377,124.474,724.528,138.989C748.679,153.504,772.83,150.352,796.981,142.376C821.132,134.4,845.283,121.6,869.434,110.67C893.585,99.741,917.736,90.681,941.887,72.729C966.038,54.776,990.189,27.93,1014.34,36.86C1038.491,45.789,1062.642,90.494,1086.792,91.747C1110.943,93.001,1135.094,50.803,1159.245,52.303C1183.396,53.803,1207.547,99.001,1231.698,119.796C1255.849,140.591,1280,136.984,1304.151,120.277C1328.302,103.571,1352.453,73.764,1376.604,57.627C1400.755,41.49,1424.906,39.023,1449.057,56.584C1473.208,74.145,1497.358,111.736,1521.509,127.032C1545.66,142.328,1569.811,135.33,1593.962,130.678C1618.113,126.027,1642.264,123.723,1666.415,121.116C1690.566,118.509,1714.717,115.599,1738.868,105.375C1763.019,95.152,1787.17,77.614,1811.321,69.532C1835.472,61.451,1859.623,62.826,1883.774,57.207C1907.925,51.587,1932.075,38.973,1956.226,45.573C1980.377,52.173,2004.528,77.987,2028.679,77.519C2052.83,77.051,2076.981,50.3,2101.132,53.555C2125.283,56.81,2149.434,90.07,2173.585,94.762C2197.736,99.454,2221.887,75.578,2246.038,79.731C2270.189,83.884,2294.34,116.066,2318.491,129.041C2342.642,142.016,2366.792,135.785,2390.943,137.862C2415.094,139.939,2439.245,150.325,2463.396,135.274C2487.547,120.222,2511.698,79.735,2535.849,61.622C2560,43.508,2584.151,47.77,2608.302,44.717C2632.453,41.665,2656.604,31.299,2680.755,36.667C2704.906,42.035,2729.057,63.137,2753.208,80.261C2777.358,97.386,2801.509,110.532,2825.66,112.416C2849.811,114.3,2873.962,104.922,2898.113,106.829C2922.264,108.736,2946.415,121.929,2970.566,117.531C2994.717,113.132,3018.868,91.142,3043.019,72.513C3067.17,53.883,3091.321,38.615,3115.472,33.996C3139.623,29.377,3163.774,35.407,3187.925,56.415C3212.075,77.423,3236.226,113.409,3260.377,122.437C3284.528,131.465,3308.679,113.536,3332.83,117.389C3356.981,121.241,3381.132,146.874,3405.283,149.528C3429.434,152.181,3453.585,131.855,3477.736,131.997C3501.887,132.139,3526.038,152.75,3550.189,157.978C3574.34,163.207,3598.491,153.054,3622.642,139.805C3646.792,126.556,3670.943,110.211,3695.094,100.17C3719.245,90.129,3743.396,86.392,3767.547,81.411C3791.698,76.429,3815.849,70.203,3827.925,67.09L3840,63.977L3840,900L3827.925,900C3815.849,900,3791.698,900,3767.547,900C3743.396,900,3719.245,900,3695.094,900C3670.943,900,3646.792,900,3622.642,900C3598.491,900,3574.34,900,3550.189,900C3526.038,900,3501.887,900,3477.736,900C3453.585,900,3429.434,900,3405.283,900C3381.132,900,3356.981,900,3332.83,900C3308.679,900,3284.528,900,3260.377,900C3236.226,900,3212.075,900,3187.925,900C3163.774,900,3139.623,900,3115.472,900C3091.321,900,3067.17,900,3043.019,900C3018.868,900,2994.717,900,2970.566,900C2946.415,900,2922.264,900,2898.113,900C2873.962,900,2849.811,900,2825.66,900C2801.509,900,2777.358,900,2753.208,900C2729.057,900,2704.906,900,2680.755,900C2656.604,900,2632.453,900,2608.302,900C2584.151,900,2560,900,2535.849,900C2511.698,900,2487.547,900,2463.396,900C2439.245,900,2415.094,900,2390.943,900C2366.792,900,2342.642,900,2318.491,900C2294.34,900,2270.189,900,2246.038,900C2221.887,900,2197.736,900,2173.585,900C2149.434,900,2125.283,900,2101.132,900C2076.981,900,2052.83,900,2028.679,900C2004.528,900,1980.377,900,1956.226,900C1932.075,900,1907.925,900,1883.774,900C1859.623,900,1835.472,900,1811.321,900C1787.17,900,1763.019,900,1738.868,900C1714.717,900,1690.566,900,1666.415,900C1642.264,900,1618.113,900,1593.962,900C1569.811,900,1545.66,900,1521.509,900C1497.358,900,1473.208,900,1449.057,900C1424.906,900,1400.755,900,1376.604,900C1352.453,900,1328.302,900,1304.151,900C1280,900,1255.849,900,1231.698,900C1207.547,900,1183.396,900,1159.245,900C1135.094,900,1110.943,900,1086.792,900C1062.642,900,1038.491,900,1014.34,900C990.189,900,966.038,900,941.887,900C917.736,900,893.585,900,869.434,900C845.283,900,821.132,900,796.981,900C772.83,900,748.679,900,724.528,900C700.377,900,676.226,900,652.075,900C627.925,900,603.774,900,579.623,900C555.472,900,531.321,900,507.17,900C483.019,900,458.868,900,434.717,900C410.566,900,386.415,900,362.264,900C338.113,900,313.962,900,289.811,900C265.66,900,241.509,900,217.358,900C193.208,900,169.057,900,144.906,900C120.755,900,96.604,900,72.453,900C48.302,900,24.151,900,12.075,900L0,900Z"></path></g><g transform="translate(0, 1440)"><path fill="rgb(74, 109, 77)" fill-opacity="1" d="M0,19.62L12.075,16.617C24.151,13.615,48.302,7.61,72.453,29.151C96.604,50.692,120.755,99.779,144.906,111.198C169.057,122.618,193.208,96.37,217.358,72.519C241.509,48.668,265.66,27.214,289.811,41.007C313.962,54.799,338.113,103.838,362.264,130.709C386.415,157.58,410.566,162.283,434.717,139.126C458.868,115.969,483.019,64.952,507.17,40.266C531.321,15.579,555.472,17.223,579.623,21.337C603.774,25.45,627.925,32.033,652.075,55.606C676.226,79.179,700.377,119.743,724.528,139.79C748.679,159.837,772.83,159.368,796.981,151.858C821.132,144.349,845.283,129.8,869.434,119.371C893.585,108.941,917.736,102.631,941.887,97.633C966.038,92.636,990.189,88.951,1014.34,76.637C1038.491,64.323,1062.642,43.38,1086.792,52.14C1110.943,60.901,1135.094,99.364,1159.245,114.109C1183.396,128.853,1207.547,119.879,1231.698,101.629C1255.849,83.379,1280,55.854,1304.151,47.443C1328.302,39.032,1352.453,49.735,1376.604,45.837C1400.755,41.939,1424.906,23.441,1449.057,19.103C1473.208,14.764,1497.358,24.587,1521.509,26.525C1545.66,28.464,1569.811,22.519,1593.962,44.103C1618.113,65.687,1642.264,114.8,1666.415,141.699C1690.566,168.598,1714.717,173.284,1738.868,161.424C1763.019,149.564,1787.17,121.159,1811.321,96.265C1835.472,71.372,1859.623,49.99,1883.774,60.743C1907.925,71.497,1932.075,114.384,1956.226,137.564C1980.377,160.743,2004.528,164.214,2028.679,153.392C2052.83,142.569,2076.981,117.453,2101.132,97.887C2125.283,78.321,2149.434,64.305,2173.585,49.897C2197.736,35.488,2221.887,20.687,2246.038,23.403C2270.189,26.119,2294.34,46.352,2318.491,47.035C2342.642,47.717,2366.792,28.848,2390.943,31.843C2415.094,34.838,2439.245,59.697,2463.396,63.805C2487.547,67.913,2511.698,51.27,2535.849,41.525C2560,31.78,2584.151,28.932,2608.302,48.137C2632.453,67.341,2656.604,108.599,2680.755,130.39C2704.906,152.181,2729.057,154.505,2753.208,134.031C2777.358,113.556,2801.509,70.283,2825.66,53.053C2849.811,35.824,2873.962,44.639,2898.113,44.9C2922.264,45.162,2946.415,36.869,2970.566,35.212C2994.717,33.555,3018.868,38.532,3043.019,37.652C3067.17,36.773,3091.321,30.035,3115.472,40.358C3139.623,50.68,3163.774,78.062,3187.925,93.388C3212.075,108.714,3236.226,111.983,3260.377,110.938C3284.528,109.893,3308.679,104.533,3332.83,108.363C3356.981,112.193,3381.132,125.214,3405.283,135.705C3429.434,146.197,3453.585,154.159,3477.736,136.404C3501.887,118.649,3526.038,75.177,3550.189,64.663C3574.34,54.15,3598.491,76.594,3622.642,78.333C3646.792,80.073,3670.943,61.107,3695.094,60.532C3719.245,59.957,3743.396,77.773,3767.547,87.859C3791.698,97.946,3815.849,100.304,3827.925,101.483L3840,102.662L3840,720L3827.925,720C3815.849,720,3791.698,720,3767.547,720C3743.396,720,3719.245,720,3695.094,720C3670.943,720,3646.792,720,3622.642,720C3598.491,720,3574.34,720,3550.189,720C3526.038,720,3501.887,720,3477.736,720C3453.585,720,3429.434,720,3405.283,720C3381.132,720,3356.981,720,3332.83,720C3308.679,720,3284.528,720,3260.377,720C3236.226,720,3212.075,720,3187.925,720C3163.774,720,3139.623,720,3115.472,720C3091.321,720,3067.17,720,3043.019,720C3018.868,720,2994.717,720,2970.566,720C2946.415,720,2922.264,720,2898.113,720C2873.962,720,2849.811,720,2825.66,720C2801.509,720,2777.358,720,2753.208,720C2729.057,720,2704.906,720,2680.755,720C2656.604,720,2632.453,720,2608.302,720C2584.151,720,2560,720,2535.849,720C2511.698,720,2487.547,720,2463.396,720C2439.245,720,2415.094,720,2390.943,720C2366.792,720,2342.642,720,2318.491,720C2294.34,720,2270.189,720,2246.038,720C2221.887,720,2197.736,720,2173.585,720C2149.434,720,2125.283,720,2101.132,720C2076.981,720,2052.83,720,2028.679,720C2004.528,720,1980.377,720,1956.226,720C1932.075,720,1907.925,720,1883.774,720C1859.623,720,1835.472,720,1811.321,720C1787.17,720,1763.019,720,1738.868,720C1714.717,720,1690.566,720,1666.415,720C1642.264,720,1618.113,720,1593.962,720C1569.811,720,1545.66,720,1521.509,720C1497.358,720,1473.208,720,1449.057,720C1424.906,720,1400.755,720,1376.604,720C1352.453,720,1328.302,720,1304.151,720C1280,720,1255.849,720,1231.698,720C1207.547,720,1183.396,720,1159.245,720C1135.094,720,1110.943,720,1086.792,720C1062.642,720,1038.491,720,1014.34,720C990.189,720,966.038,720,941.887,720C917.736,720,893.585,720,869.434,720C845.283,720,821.132,720,796.981,720C772.83,720,748.679,720,724.528,720C700.377,720,676.226,720,652.075,720C627.925,720,603.774,720,579.623,720C555.472,720,531.321,720,507.17,720C483.019,720,458.868,720,434.717,720C410.566,720,386.415,720,362.264,720C338.113,720,313.962,720,289.811,720C265.66,720,241.509,720,217.358,720C193.208,720,169.057,720,144.906,720C120.755,720,96.604,720,72.453,720C48.302,720,24.151,720,12.075,720L0,720Z"></path></g><g transform="translate(0, 1620)"><path fill="rgb(57, 96, 60)" fill-opacity="1" d="M0,34.798L12.075,42.206C24.151,49.614,48.302,64.431,72.453,87.498C96.604,110.565,120.755,141.882,144.906,145.294C169.057,148.706,193.208,124.212,217.358,110.633C241.509,97.054,265.66,94.389,289.811,99.915C313.962,105.44,338.113,119.155,362.264,108.839C386.415,98.522,410.566,64.175,434.717,54.505C458.868,44.835,483.019,59.843,507.17,72.054C531.321,84.265,555.472,93.679,579.623,111.029C603.774,128.379,627.925,153.665,652.075,158.316C676.226,162.966,700.377,146.979,724.528,135.998C748.679,125.016,772.83,119.04,796.981,113.024C821.132,107.009,845.283,100.954,869.434,101.866C893.585,102.778,917.736,110.655,941.887,112.671C966.038,114.687,990.189,110.842,1014.34,120.543C1038.491,130.245,1062.642,153.494,1086.792,140.57C1110.943,127.646,1135.094,78.548,1159.245,76.165C1183.396,73.782,1207.547,118.112,1231.698,121.589C1255.849,125.066,1280,87.689,1304.151,79.076C1328.302,70.463,1352.453,90.613,1376.604,86.911C1400.755,83.21,1424.906,55.656,1449.057,37.968C1473.208,20.28,1497.358,12.456,1521.509,15.413C1545.66,18.37,1569.811,32.107,1593.962,34.62C1618.113,37.133,1642.264,28.422,1666.415,21.062C1690.566,13.702,1714.717,7.693,1738.868,34.29C1763.019,60.886,1787.17,120.089,1811.321,149.446C1835.472,178.803,1859.623,178.315,1883.774,166.481C1907.925,154.648,1932.075,131.469,1956.226,116.31C1980.377,101.151,2004.528,94.012,2028.679,87.564C2052.83,81.116,2076.981,75.359,2101.132,76.026C2125.283,76.693,2149.434,83.783,2173.585,90.211C2197.736,96.638,2221.887,102.401,2246.038,88.707C2270.189,75.013,2294.34,41.86,2318.491,49.054C2342.642,56.247,2366.792,103.787,2390.943,118.524C2415.094,133.261,2439.245,115.195,2463.396,117.911C2487.547,120.627,2511.698,144.124,2535.849,129.617C2560,115.11,2584.151,62.598,2608.302,49.434C2632.453,36.269,2656.604,62.452,2680.755,79.444C2704.906,96.436,2729.057,104.237,2753.208,106.256C2777.358,108.274,2801.509,104.51,2825.66,87.627C2849.811,70.744,2873.962,40.743,2898.113,38.396C2922.264,36.049,2946.415,61.357,2970.566,73.791C2994.717,86.226,3018.868,85.786,3043.019,92.643C3067.17,99.5,3091.321,113.652,3115.472,121.296C3139.623,128.94,3163.774,130.075,3187.925,136.636C3212.075,143.196,3236.226,155.182,3260.377,141.621C3284.528,128.059,3308.679,88.951,3332.83,66.602C3356.981,44.253,3381.132,38.663,3405.283,41.268C3429.434,43.873,3453.585,54.673,3477.736,74.944C3501.887,95.214,3526.038,124.954,3550.189,129.316C3574.34,133.678,3598.491,112.661,3622.642,115.79C3646.792,118.918,3670.943,146.192,3695.094,153.194C3719.245,160.196,3743.396,146.927,3767.547,119.26C3791.698,91.592,3815.849,49.525,3827.925,28.491L3840,7.458L3840,540L3827.925,540C3815.849,540,3791.698,540,3767.547,540C3743.396,540,3719.245,540,3695.094,540C3670.943,540,3646.792,540,3622.642,540C3598.491,540,3574.34,540,3550.189,540C3526.038,540,3501.887,540,3477.736,540C3453.585,540,3429.434,540,3405.283,540C3381.132,540,3356.981,540,3332.83,540C3308.679,540,3284.528,540,3260.377,540C3236.226,540,3212.075,540,3187.925,540C3163.774,540,3139.623,540,3115.472,540C3091.321,540,3067.17,540,3043.019,540C3018.868,540,2994.717,540,2970.566,540C2946.415,540,2922.264,540,2898.113,540C2873.962,540,2849.811,540,2825.66,540C2801.509,540,2777.358,540,2753.208,540C2729.057,540,2704.906,540,2680.755,540C2656.604,540,2632.453,540,2608.302,540C2584.151,540,2560,540,2535.849,540C2511.698,540,2487.547,540,2463.396,540C2439.245,540,2415.094,540,2390.943,540C2366.792,540,2342.642,540,2318.491,540C2294.34,540,2270.189,540,2246.038,540C2221.887,540,2197.736,540,2173.585,540C2149.434,540,2125.283,540,2101.132,540C2076.981,540,2052.83,540,2028.679,540C2004.528,540,1980.377,540,1956.226,540C1932.075,540,1907.925,540,1883.774,540C1859.623,540,1835.472,540,1811.321,540C1787.17,540,1763.019,540,1738.868,540C1714.717,540,1690.566,540,1666.415,540C1642.264,540,1618.113,540,1593.962,540C1569.811,540,1545.66,540,1521.509,540C1497.358,540,1473.208,540,1449.057,540C1424.906,540,1400.755,540,1376.604,540C1352.453,540,1328.302,540,1304.151,540C1280,540,1255.849,540,1231.698,540C1207.547,540,1183.396,540,1159.245,540C1135.094,540,1110.943,540,1086.792,540C1062.642,540,1038.491,540,1014.34,540C990.189,540,966.038,540,941.887,540C917.736,540,893.585,540,869.434,540C845.283,540,821.132,540,796.981,540C772.83,540,748.679,540,724.528,540C700.377,540,676.226,540,652.075,540C627.925,540,603.774,540,579.623,540C555.472,540,531.321,540,507.17,540C483.019,540,458.868,540,434.717,540C410.566,540,386.415,540,362.264,540C338.113,540,313.962,540,289.811,540C265.66,540,241.509,540,217.358,540C193.208,540,169.057,540,144.906,540C120.755,540,96.604,540,72.453,540C48.302,540,24.151,540,12.075,540L0,540Z"></path></g><g transform="translate(0, 1800)"><path fill="rgb(41, 84, 44)" fill-opacity="1" d="M0,153.326L12.075,149.554C24.151,145.782,48.302,138.238,72.453,124.276C96.604,110.315,120.755,89.936,144.906,85.265C169.057,80.594,193.208,91.632,217.358,92.296C241.509,92.961,265.66,83.254,289.811,75.089C313.962,66.925,338.113,60.303,362.264,70.74C386.415,81.177,410.566,108.673,434.717,124.734C458.868,140.794,483.019,145.418,507.17,139.475C531.321,133.533,555.472,117.023,579.623,95.862C603.774,74.701,627.925,48.889,652.075,44.008C676.226,39.126,700.377,55.176,724.528,61.549C748.679,67.922,772.83,64.619,796.981,63.504C821.132,62.389,845.283,63.462,869.434,70.415C893.585,77.368,917.736,90.2,941.887,103.625C966.038,117.049,990.189,131.065,1014.34,124.007C1038.491,116.95,1062.642,88.819,1086.792,76.781C1110.943,64.744,1135.094,68.8,1159.245,62.488C1183.396,56.175,1207.547,39.494,1231.698,40.342C1255.849,41.19,1280,59.567,1304.151,58.619C1328.302,57.671,1352.453,37.398,1376.604,30.582C1400.755,23.766,1424.906,30.408,1449.057,57.204C1473.208,84,1497.358,130.951,1521.509,153.63C1545.66,176.31,1569.811,174.719,1593.962,159.068C1618.113,143.417,1642.264,113.706,1666.415,112.337C1690.566,110.968,1714.717,137.942,1738.868,133.482C1763.019,129.021,1787.17,93.128,1811.321,88.421C1835.472,83.714,1859.623,110.195,1883.774,107.662C1907.925,105.13,1932.075,73.584,1956.226,51.031C1980.377,28.478,2004.528,14.917,2028.679,35.189C2052.83,55.46,2076.981,109.564,2101.132,136.431C2125.283,163.298,2149.434,162.928,2173.585,153.099C2197.736,143.271,2221.887,123.983,2246.038,119.996C2270.189,116.01,2294.34,127.325,2318.491,131.037C2342.642,134.75,2366.792,130.861,2390.943,119.016C2415.094,107.171,2439.245,87.37,2463.396,66.308C2487.547,45.246,2511.698,22.923,2535.849,19.627C2560,16.331,2584.151,32.062,2608.302,61.022C2632.453,89.981,2656.604,132.169,2680.755,135.95C2704.906,139.731,2729.057,105.105,2753.208,102.393C2777.358,99.681,2801.509,128.883,2825.66,128.897C2849.811,128.912,2873.962,99.739,2898.113,99.435C2922.264,99.131,2946.415,127.694,2970.566,132.385C2994.717,137.077,3018.868,117.896,3043.019,97.371C3067.17,76.846,3091.321,54.977,3115.472,42.837C3139.623,30.698,3163.774,28.288,3187.925,37.607C3212.075,46.926,3236.226,67.975,3260.377,70.989C3284.528,74.004,3308.679,58.984,3332.83,67.892C3356.981,76.8,3381.132,109.635,3405.283,125.652C3429.434,141.669,3453.585,140.869,3477.736,118.39C3501.887,95.911,3526.038,51.755,3550.189,35.379C3574.34,19.003,3598.491,30.407,3622.642,35.338C3646.792,40.268,3670.943,38.725,3695.094,36.23C3719.245,33.736,3743.396,30.291,3767.547,33.106C3791.698,35.92,3815.849,44.996,3827.925,49.533L3840,54.071L3840,360L3827.925,360C3815.849,360,3791.698,360,3767.547,360C3743.396,360,3719.245,360,3695.094,360C3670.943,360,3646.792,360,3622.642,360C3598.491,360,3574.34,360,3550.189,360C3526.038,360,3501.887,360,3477.736,360C3453.585,360,3429.434,360,3405.283,360C3381.132,360,3356.981,360,3332.83,360C3308.679,360,3284.528,360,3260.377,360C3236.226,360,3212.075,360,3187.925,360C3163.774,360,3139.623,360,3115.472,360C3091.321,360,3067.17,360,3043.019,360C3018.868,360,2994.717,360,2970.566,360C2946.415,360,2922.264,360,2898.113,360C2873.962,360,2849.811,360,2825.66,360C2801.509,360,2777.358,360,2753.208,360C2729.057,360,2704.906,360,2680.755,360C2656.604,360,2632.453,360,2608.302,360C2584.151,360,2560,360,2535.849,360C2511.698,360,2487.547,360,2463.396,360C2439.245,360,2415.094,360,2390.943,360C2366.792,360,2342.642,360,2318.491,360C2294.34,360,2270.189,360,2246.038,360C2221.887,360,2197.736,360,2173.585,360C2149.434,360,2125.283,360,2101.132,360C2076.981,360,2052.83,360,2028.679,360C2004.528,360,1980.377,360,1956.226,360C1932.075,360,1907.925,360,1883.774,360C1859.623,360,1835.472,360,1811.321,360C1787.17,360,1763.019,360,1738.868,360C1714.717,360,1690.566,360,1666.415,360C1642.264,360,1618.113,360,1593.962,360C1569.811,360,1545.66,360,1521.509,360C1497.358,360,1473.208,360,1449.057,360C1424.906,360,1400.755,360,1376.604,360C1352.453,360,1328.302,360,1304.151,360C1280,360,1255.849,360,1231.698,360C1207.547,360,1183.396,360,1159.245,360C1135.094,360,1110.943,360,1086.792,360C1062.642,360,1038.491,360,1014.34,360C990.189,360,966.038,360,941.887,360C917.736,360,893.585,360,869.434,360C845.283,360,821.132,360,796.981,360C772.83,360,748.679,360,724.528,360C700.377,360,676.226,360,652.075,360C627.925,360,603.774,360,579.623,360C555.472,360,531.321,360,507.17,360C483.019,360,458.868,360,434.717,360C410.566,360,386.415,360,362.264,360C338.113,360,313.962,360,289.811,360C265.66,360,241.509,360,217.358,360C193.208,360,169.057,360,144.906,360C120.755,360,96.604,360,72.453,360C48.302,360,24.151,360,12.075,360L0,360Z"></path></g><g transform="translate(0, 1980)"><path fill="rgb(24, 71, 27)" fill-opacity="1" d="M0,39.995L12.075,33.67C24.151,27.345,48.302,14.695,72.453,27.105C96.604,39.514,120.755,76.982,144.906,95.809C169.057,114.637,193.208,114.824,217.358,95.985C241.509,77.147,265.66,39.282,289.811,30.449C313.962,21.615,338.113,41.813,362.264,70.101C386.415,98.39,410.566,134.769,434.717,150.341C458.868,165.913,483.019,160.679,507.17,133.142C531.321,105.605,555.472,55.767,579.623,57.683C603.774,59.599,627.925,113.269,652.075,126.163C676.226,139.058,700.377,111.175,724.528,100.473C748.679,89.77,772.83,96.247,796.981,107.854C821.132,119.461,845.283,136.199,869.434,127.777C893.585,119.356,917.736,85.776,941.887,67.538C966.038,49.299,990.189,46.402,1014.34,52.634C1038.491,58.867,1062.642,74.23,1086.792,83.981C1110.943,93.733,1135.094,97.873,1159.245,88.823C1183.396,79.774,1207.547,57.534,1231.698,54.317C1255.849,51.099,1280,66.903,1304.151,86.654C1328.302,106.404,1352.453,130.101,1376.604,126.11C1400.755,122.118,1424.906,90.438,1449.057,73.654C1473.208,56.87,1497.358,54.982,1521.509,70.415C1545.66,85.849,1569.811,118.604,1593.962,122.458C1618.113,126.313,1642.264,101.266,1666.415,101.514C1690.566,101.762,1714.717,127.304,1738.868,126.458C1763.019,125.612,1787.17,98.377,1811.321,84.634C1835.472,70.892,1859.623,70.642,1883.774,77.051C1907.925,83.46,1932.075,96.529,1956.226,106.248C1980.377,115.966,2004.528,122.335,2028.679,117.603C2052.83,112.87,2076.981,97.037,2101.132,105.487C2125.283,113.937,2149.434,146.669,2173.585,135.05C2197.736,123.432,2221.887,67.461,2246.038,45.532C2270.189,23.603,2294.34,35.714,2318.491,44.091C2342.642,52.469,2366.792,57.114,2390.943,68.933C2415.094,80.752,2439.245,99.745,2463.396,99.5C2487.547,99.255,2511.698,79.771,2535.849,84.063C2560,88.356,2584.151,116.425,2608.302,126.749C2632.453,137.074,2656.604,129.654,2680.755,128.727C2704.906,127.8,2729.057,133.365,2753.208,128.952C2777.358,124.539,2801.509,110.147,2825.66,116.717C2849.811,123.288,2873.962,150.821,2898.113,140.839C2922.264,130.856,2946.415,83.358,2970.566,73.595C2994.717,63.831,3018.868,91.802,3043.019,110.992C3067.17,130.182,3091.321,140.591,3115.472,142.398C3139.623,144.206,3163.774,137.412,3187.925,113.558C3212.075,89.703,3236.226,48.789,3260.377,52.02C3284.528,55.252,3308.679,102.629,3332.83,103.265C3356.981,103.902,3381.132,57.798,3405.283,46.617C3429.434,35.436,3453.585,59.178,3477.736,77.918C3501.887,96.658,3526.038,110.396,3550.189,98.941C3574.34,87.487,3598.491,50.841,3622.642,57.2C3646.792,63.558,3670.943,112.922,3695.094,132.513C3719.245,152.104,3743.396,141.922,3767.547,138.282C3791.698,134.642,3815.849,137.544,3827.925,138.995L3840,140.445L3840,180L3827.925,180C3815.849,180,3791.698,180,3767.547,180C3743.396,180,3719.245,180,3695.094,180C3670.943,180,3646.792,180,3622.642,180C3598.491,180,3574.34,180,3550.189,180C3526.038,180,3501.887,180,3477.736,180C3453.585,180,3429.434,180,3405.283,180C3381.132,180,3356.981,180,3332.83,180C3308.679,180,3284.528,180,3260.377,180C3236.226,180,3212.075,180,3187.925,180C3163.774,180,3139.623,180,3115.472,180C3091.321,180,3067.17,180,3043.019,180C3018.868,180,2994.717,180,2970.566,180C2946.415,180,2922.264,180,2898.113,180C2873.962,180,2849.811,180,2825.66,180C2801.509,180,2777.358,180,2753.208,180C2729.057,180,2704.906,180,2680.755,180C2656.604,180,2632.453,180,2608.302,180C2584.151,180,2560,180,2535.849,180C2511.698,180,2487.547,180,2463.396,180C2439.245,180,2415.094,180,2390.943,180C2366.792,180,2342.642,180,2318.491,180C2294.34,180,2270.189,180,2246.038,180C2221.887,180,2197.736,180,2173.585,180C2149.434,180,2125.283,180,2101.132,180C2076.981,180,2052.83,180,2028.679,180C2004.528,180,1980.377,180,1956.226,180C1932.075,180,1907.925,180,1883.774,180C1859.623,180,1835.472,180,1811.321,180C1787.17,180,1763.019,180,1738.868,180C1714.717,180,1690.566,180,1666.415,180C1642.264,180,1618.113,180,1593.962,180C1569.811,180,1545.66,180,1521.509,180C1497.358,180,1473.208,180,1449.057,180C1424.906,180,1400.755,180,1376.604,180C1352.453,180,1328.302,180,1304.151,180C1280,180,1255.849,180,1231.698,180C1207.547,180,1183.396,180,1159.245,180C1135.094,180,1110.943,180,1086.792,180C1062.642,180,1038.491,180,1014.34,180C990.189,180,966.038,180,941.887,180C917.736,180,893.585,180,869.434,180C845.283,180,821.132,180,796.981,180C772.83,180,748.679,180,724.528,180C700.377,180,676.226,180,652.075,180C627.925,180,603.774,180,579.623,180C555.472,180,531.321,180,507.17,180C483.019,180,458.868,180,434.717,180C410.566,180,386.415,180,362.264,180C338.113,180,313.962,180,289.811,180C265.66,180,241.509,180,217.358,180C193.208,180,169.057,180,144.906,180C120.755,180,96.604,180,72.453,180C48.302,180,24.151,180,12.075,180L0,180Z"></path></g></g></svg>