<?xml version="1.0" encoding="UTF-8"?>
<svg id="Capa_1" data-name="Capa 1" xmlns="http://www.w3.org/2000/svg" viewBox="0 0 437.64 105.23">
  <defs>
    <style>
      .cls-1 {
        fill: #fff;
        stroke-width: 0px;
      }
    </style>
  </defs>
  <path class="cls-1" d="M0,42.41C0,17.63,16.71,0,40.22,0c17.4,0,32.27,9.57,35.38,21.32,2.07,7.72-2.65,12.22-7.72,12.22-3.34,0-6.92-2.07-8.41-6.8-2.65-8.53-10.72-22.01-23.63-22.01s-19.36,13.83-19.36,25.82c0,19.25,8.07,41.84,32.85,41.84,8.76,0,20.75-5.07,25.59-12.1.46-.69,1.04-.92,1.5-.92.92,0,1.5,1.04.92,2.19-4.03,7.95-17.98,23.28-37.11,23.28C16.71,84.83,0,67.19,0,42.41Z"/>
  <path class="cls-1" d="M83.33,53.25c0-18.56,13.95-31.7,32.62-31.7s32.5,13.14,32.5,31.7-13.83,31.58-32.5,31.58-32.62-13.14-32.62-31.58ZM100.04,46.33c0,12.1,5.42,34.92,18.56,34.92,11.64,0,13.25-11.53,13.25-21.09,0-12.68-5.76-35.04-18.79-35.04-11.64,0-13.02,11.06-13.02,21.21Z"/>
  <path class="cls-1" d="M151.35,86.56c1.5,0,3,.35,4.61,1.15,4.03,2.07,7.84,5.76,11.76,5.76,6.22,0,8.3-4.03,11.06-9.45.23-.46.58-.92.81-1.5-1.96-3.92-3.34-7.03-8.3-17.17l-11.41-23.28c-5.19-10.37-7.49-14.41-11.06-16.37-.69-.35-.58-.81.46-.81h25.36c.92,0,.69.46.23.81-2.42,1.73-1.27,8.53.58,12.68,4.84,11.18,7.72,16.94,12.79,27.66,4.96-9.8,10.03-19.94,11.06-23.17,2.42-6.91,1.5-14.06-1.96-16.83-.69-.46-.46-1.15.69-1.15h17.98c.92,0,.69.58-.23,1.27-3.69,2.65-7.26,8.3-11.41,15.91l-24.2,45.18c-5.76,10.83-15.21,17.98-24.09,17.98-3.11,0-6.22-.92-9.11-2.77-8.3-5.42-3.34-15.91,4.38-15.91Z"/>
  <path class="cls-1" d="M223.87,26.97l20.98-5.19c.58-.12.92.12.92.69v39.65c0,12.91,2.77,19.25,9.91,19.25,9.68,0,14.29-10.6,14.29-18.56v-11.76c0-3.23-.35-14.98-4.61-21.9-.92-1.38-1.61-1.84,0-2.19l21.09-5.19c.46-.12.81.12.81.69v35.96c0,3.23.35,14.98,4.61,21.9.81,1.38,1.61,2.19-.12,2.19h-21.78v-6.68c-3.11,4.96-8.41,8.99-16.83,8.99-19.82,0-24.66-11.06-24.66-26.39v-7.38c0-3.23-.35-14.98-4.61-21.9-.92-1.38-1.61-1.84,0-2.19Z"/>
  <path class="cls-1" d="M306.28,86.56c1.5,0,3,.35,4.61,1.15,4.03,2.07,7.84,5.76,11.76,5.76,6.22,0,8.3-4.03,11.06-9.45.23-.46.58-.92.81-1.5-1.96-3.92-3.34-7.03-8.3-17.17l-11.41-23.28c-5.19-10.37-7.49-14.41-11.06-16.37-.69-.35-.58-.81.46-.81h25.36c.92,0,.69.46.23.81-2.42,1.73-1.27,8.53.58,12.68,4.84,11.18,7.72,16.94,12.79,27.66,4.96-9.8,10.03-19.94,11.06-23.17,2.42-6.91,1.5-14.06-1.96-16.83-.69-.46-.46-1.15.69-1.15h17.98c.92,0,.69.58-.23,1.27-3.69,2.65-7.26,8.3-11.41,15.91l-24.2,45.18c-5.76,10.83-15.21,17.98-24.09,17.98-3.11,0-6.22-.92-9.11-2.77-8.3-5.42-3.34-15.91,4.38-15.91Z"/>
  <path class="cls-1" d="M372.52,53.25c0-18.56,13.95-31.7,32.62-31.7s32.5,13.14,32.5,31.7-13.83,31.58-32.5,31.58-32.62-13.14-32.62-31.58ZM389.23,46.33c0,12.1,5.42,34.92,18.56,34.92,11.64,0,13.25-11.53,13.25-21.09,0-12.68-5.76-35.04-18.79-35.04-11.64,0-13.02,11.06-13.02,21.21Z"/>
</svg>