<?xml version="1.0" encoding="UTF-8"?>
<svg id="Capa_1" data-name="Capa 1" xmlns="http://www.w3.org/2000/svg" version="1.1" viewBox="0 0 131.91 131.82">
  <defs>
    <style>
      .cls-1 {
        fill: #fff;
        stroke-width: 0px;
      }
    </style>
  </defs>
  <path class="cls-1" d="M66.11,3.08C31.34,3.03,3.09,31.14,3.07,65.82c-.02,34.76,28.05,62.86,62.84,62.92,34.71.06,62.91-28.11,62.93-62.83.02-34.57-28.14-62.76-62.73-62.81ZM114.44,36.44c-7.08,7.99-15.01,13.98-23.99,17.73-.71-.86-1.46-1.67-2.25-2.44,2.48-3.53,5.03-7.15,7.2-10.98,3.03-5.36,5.28-11.16,8.14-17.35,3.71,4.44,7.31,8.73,10.91,13.04ZM87.86,13.84c3.38,1.84,6.61,3.59,9.91,5.39-3.89,10.2-7.79,20.08-14.65,28.43-.93-.6-1.88-1.16-2.86-1.67,1.26-4.29,2.48-8.44,3.51-12.64,1.55-6.3,2.68-12.7,4.09-19.5ZM69.33,9.51c4.09.68,7.99,1.32,12.18,2.02-2.07,10.96-3.8,21.79-7.27,32.07-1.6-.45-3.23-.79-4.9-.99V9.51ZM62.56,9.49v32.97c-1.63.13-3.24.37-4.81.73-3.59-10.08-5.32-20.76-7.36-31.64,4.15-.7,8.05-1.36,12.17-2.06ZM35.32,18.72c2.77-1.67,5.63-3.2,8.86-5.01,1.93,10.97,3.91,21.52,7.2,31.66-1.07.49-2.11,1.05-3.12,1.65-.13-.17-.27-.33-.4-.5-6.08-7.81-9.81-16.83-13.18-26.02-.17-.47.21-1.53.65-1.79ZM18.35,35.9c2.76-4.52,6.13-8.54,10.43-12.26,3.79,9.75,7.85,19.18,14.05,27.48-.85.79-1.66,1.63-2.44,2.52-.16-.07-.32-.13-.48-.2-8.24-3.62-15.13-9.08-21.22-15.62-.38-.41-.6-1.49-.34-1.92ZM11.09,77.85c27.13,2.12,46.48,24.69,49.26,43.87-22.73-1.16-45.07-20.33-49.26-43.87ZM62.58,106.73c-11.36-21.4-28.81-33.31-52.74-35.78-.87-9.7.69-18.88,4.68-28.05,13.12,13.91,29.07,21.47,48.06,22.69v41.13ZM65,58.66c-8.85-.05-15.84-1.08-19.09-2.07.17-.18.36-.35.54-.53h0c.08-.08.16-.16.25-.24h0c1.73-1.65,3.65-3.05,5.72-4.17h0c.12-.07.25-.13.38-.2,2.64-1.38,5.51-2.31,8.5-2.75.01,0,.03,0,.04,0,.41-.06.82-.11,1.23-.15,0,0,0,0,0,0h0c.87-.08,1.74-.13,2.62-.13,1.88,0,3.73.2,5.53.57,0,0,0,0,.01,0,2.75.58,5.38,1.58,7.79,2.97h0c.13.08.27.15.4.23h0c1.9,1.14,3.67,2.51,5.26,4.12-3.41,1.34-9.87,2.4-19.18,2.35ZM70.06,121.79c4.66-25.12,28.45-43.49,50.8-43.93-4.75,25.42-28.91,43.66-50.8,43.93ZM69.35,105.17v-39.57c18.9-1.24,34.82-8.72,47.77-22.43,3.57,4.78,6.14,19.75,4.78,27.72-23.06,1.86-40.51,13.82-52.54,34.28Z"/>
</svg>